Coordinates
version=1
nRows=10
nColumns=40
inDegrees=yes
endheader
time	pelvis_tilt	pelvis_list	pelvis_rotation	pelvis_tx	pelvis_ty	pelvis_tz	hip_flexion_r	hip_adduction_r	hip_rotation_r	knee_angle_r	knee_angle_r_beta	ankle_angle_r	subtalar_angle_r	mtp_angle_r	hip_flexion_l	hip_adduction_l	hip_rotation_l	knee_angle_l	knee_angle_l_beta	ankle_angle_l	subtalar_angle_l	mtp_angle_l	lumbar_extension	lumbar_bending	lumbar_rotation	arm_flex_r	arm_add_r	arm_rot_r	elbow_flex_r	pro_sup_r	wrist_flex_r	wrist_dev_r	arm_flex_l	arm_add_l	arm_rot_l	elbow_flex_l	pro_sup_l	wrist_flex_l	wrist_dev_l
1760625433.83394098	     25.36254761	     -0.98642727	      0.61262127	      0.15530416	      0.83594653	      0.00270545	     80.00000000	     -7.00000000	      0.00000000	     80.00000000	      1.39626340	      0.00000000	      0.00000000	      0.00000000	     80.00000000	     -7.00000000	      0.00000000	     80.00000000	      1.39626340	      0.00000000	      0.00000000	      0.00000000	    -36.00871628	     -1.97601740	      2.62657835	     -7.14326096	     -6.65071828	      4.93492220	    122.38580705	    173.79018069	    -20.00179283	     35.00000010	     -9.43075365	     -3.68814112	      1.83999468	    127.42596362	    177.28179639	     11.43725119	     35.00000010
1760625433.84394097	     24.95098855	     -1.27824659	      0.89731024	      0.15482237	      0.83480854	      0.00242525	     80.00000000	     -7.00000000	      0.00000000	     80.00000000	      1.39626340	      0.00000000	      0.00000000	      0.00000000	     80.00000000	     -7.00000000	      0.00000000	     80.00000000	      1.39626340	      0.00000000	      0.00000000	      0.00000000	    -35.62322376	     -1.55202852	      2.48894273	     -6.98461309	     -6.77477764	      5.08236692	    122.39779963	    173.73284809	    -19.65195566	     35.00000010	     -9.40035843	     -3.69050210	      1.80081581	    127.43214348	    177.35715325	     11.62680436	     35.00000010
1760625433.85394096	     24.94954567	     -1.27808242	      0.89748820	      0.15496162	      0.83483019	      0.00243436	     80.00000000	     -7.00000000	      0.00000000	     80.00000000	      1.39626340	      0.00000000	      0.00000000	      0.00000000	     80.00000000	     -7.00000000	      0.00000000	     80.00000000	      1.39626340	      0.00000000	      0.00000000	      0.00000000	    -35.62402759	     -1.55227363	      2.48937566	     -6.98217972	     -6.77542219	      5.08201010	    122.39870566	    173.73276466	    -19.65168254	     35.00000010	     -9.39950265	     -3.69113368	      1.80059934	    127.43130857	    177.35716711	     11.62700810	     35.00000010
1760625433.86394095	     24.93973911	     -1.26946802	      0.87601091	      0.15490227	      0.83477973	      0.00237681	     80.00000000	     -7.00000000	      0.00000000	     80.00000000	      1.39626340	      0.00000000	      0.00000000	      0.00000000	     80.00000000	     -7.00000000	      0.00000000	     80.00000000	      1.39626340	      0.00000000	      0.00000000	      0.00000000	    -35.61789347	     -1.55066521	      2.49136810	     -6.86060728	     -6.83047640	      5.07609348	    122.45365680	    173.72840745	    -19.63572167	     35.00000010	     -9.35378220	     -3.76010346	      1.78228594	    127.35910436	    177.35478256	     11.63892153	     35.00000010
1760625433.87394094	     24.96747797	     -1.31297758	      0.97305322	      0.15469971	      0.83501157	      0.00196272	     80.00000000	     -7.00000000	      0.00000000	     80.00000000	      1.39626340	      0.00000000	      0.00000000	      0.00000000	     80.00000000	     -7.00000000	      0.00000000	     80.00000000	      1.39626340	      0.00000000	      0.00000000	      0.00000000	    -35.66763888	     -1.43600530	      2.46025032	     -6.71904408	     -6.98045357	      5.13208485	    122.46308715	    173.72069066	    -19.59361164	     35.00000010	     -9.19423841	     -3.79641304	      1.83642751	    127.25438425	    177.35820419	     11.66274420	     35.00000010
1760625433.88394094	     24.99878857	     -1.32494519	      0.98649377	      0.15523736	      0.83502880	      0.00201416	     80.00000000	     -7.00000000	      0.00000000	     80.00000000	      1.39626340	      0.00000000	      0.00000000	      0.00000000	     80.00000000	     -7.00000000	      0.00000000	     80.00000000	      1.39626340	      0.00000000	      0.00000000	      0.00000000	    -35.64314022	     -1.43130755	      2.46035499	     -6.68229596	     -6.99255018	      5.13437224	    122.48088378	    173.71967224	    -19.58866948	     35.00000010	     -9.15714599	     -3.80631014	      1.83004193	    127.25948309	    177.35799279	     11.66375430	     35.00000010
1760625433.89394093	     25.48779209	     -1.23610061	      0.68361580	      0.15532713	      0.83655014	      0.00274526	     80.00000000	     -7.00000000	      0.00000000	     80.00000000	      1.39626340	      0.00000000	      0.00000000	      0.00000000	     80.00000000	     -7.00000000	      0.00000000	     80.00000000	      1.39626340	      0.00000000	      0.00000000	      0.00000000	    -36.17899129	     -1.68135274	      2.65580392	     -6.47400465	     -7.13271205	      5.28057498	    122.55603781	    173.68484442	    -19.31939072	     35.00000010	     -8.96741205	     -3.99248113	      1.84559831	    127.25445098	    177.40835828	     11.73001627	     35.00000010
1760625433.90394092	     25.12508884	     -1.28538898	      0.92032437	      0.15452939	      0.83539907	      0.00228567	     80.00000000	     -7.00000000	      0.00000000	     80.00000000	      1.39626340	      0.00000000	      0.00000000	      0.00000000	     80.00000000	     -7.00000000	      0.00000000	     80.00000000	      1.39626340	      0.00000000	      0.00000000	      0.00000000	    -35.88938015	     -1.50977972	      2.49217170	     -6.22730953	     -7.26907173	      5.31667102	    122.64900855	    173.67056422	    -19.17753416	     35.00000010	     -8.68863271	     -4.14340517	      1.93558302	    127.27328980	    177.40623269	     11.79414954	     35.00000010
1760625433.91394091	    -75.89783858	    -46.10597454	    -40.04960790	      0.03595084	      0.75118670	      0.12291483	     80.00000000	     -7.00000000	      0.00000000	     80.00000000	      1.39626340	      0.00000000	      0.00000000	      0.00000000	     80.00000000	     -7.00000000	      0.00000000	     80.00000000	      1.39626340	      0.00000000	      0.00000000	      0.00000000	     64.94445131	     51.33970304	    -25.11876115	     -9.55479985	     -9.52355840	      4.35351164	    127.27647776	    179.99984796	     -2.22854867	     35.00000010	    -12.42453410	     -2.38165180	      1.94579198	    130.08000619	    179.99984796	     22.46387040	     35.00000010
1760625433.92394090	     25.60142244	     -1.21511217	      0.73669403	      0.15493989	      0.83690376	      0.00260754	     80.00000000	     -7.00000000	      0.00000000	     80.00000000	      1.39626340	      0.00000000	      0.00000000	      0.00000000	     80.00000000	     -7.00000000	      0.00000000	     80.00000000	      1.39626340	      0.00000000	      0.00000000	      0.00000000	    -36.37613750	     -1.66442148	      2.60021555	     -5.74990914	     -7.65247226	      4.90862629	    122.85824477	    179.81352271	    -14.53252317	     35.00000010	     -8.19328005	     -4.44160575	      1.81650303	    127.40630804	    178.56113463	     13.50704445	     35.00000010
